<?xml version="1.0" encoding="utf-8"?>
<!-- Generator: Adobe Illustrator 19.2.1, SVG Export Plug-In . SVG Version: 6.00 Build 0)  -->
<svg version="1.1" id="Layer_1" xmlns="http://www.w3.org/2000/svg" xmlns:xlink="http://www.w3.org/1999/xlink" x="0px" y="0px"
	 viewBox="0 0 75 73.7" enable-background="new 0 0 75 73.7" xml:space="preserve">
<g>
	<path d="M34.9,63.9l-5.4,5.4L6.3,46.1l5.4-5.4L34.9,63.9z"/>
	<rect x="0.3" y="57.4" transform="matrix(0.7072 -0.707 0.707 0.7072 -38.9052 28.118)" width="28.5" height="7.3"/>
	<g>
		<g>
			<polygon points="52.1,35.4 70.7,16.8 75,0.6 59.3,5.4 40.7,24 			"/>
		</g>
		<g>
			<rect x="22" y="41.7" transform="matrix(0.7071 -0.7071 0.7071 0.7071 -27.4721 33.1907)" width="8.6" height="16.2"/>
		</g>
	</g>
	<path d="M40.1,63.3l5.4,5.4l23.2-23.2l-5.4-5.4L40.1,63.3z"/>
	<rect x="56.9" y="46.2" transform="matrix(0.7071 -0.7071 0.7071 0.7071 -24.9887 60.5087)" width="7.3" height="28.5"/>
	<g>
		<polygon points="51.4,40.4 15.8,4.7 0,0 4.3,16.2 39.9,51.8 46,57.9 57.5,46.5 		"/>
	</g>
</g>
</svg>
