<?xml version="1.0" encoding="utf-8"?>
<!-- Generator: Adobe Illustrator 19.2.1, SVG Export Plug-In . SVG Version: 6.00 Build 0)  -->
<svg version="1.1" id="Layer_1" xmlns="http://www.w3.org/2000/svg" xmlns:xlink="http://www.w3.org/1999/xlink" x="0px" y="0px"
	 viewBox="0 0 67.5 90" enable-background="new 0 0 67.5 90" xml:space="preserve">
<g>
	<g transform="translate(192 48)">
		<path d="M-135.8-8.6v-16.9c0-12.4-10.1-22.5-22.5-22.5c-12.4,0-22.5,10.1-22.5,22.5v16.9c-6.2,0-11.3,5-11.3,11.2v28.1
			c0,6.2,5,11.2,11.3,11.2h45c6.2,0,11.3-5,11.3-11.2V2.6C-124.5-3.6-129.5-8.6-135.8-8.6z M-155.4,18.6v9.3c0,1.6-1.3,2.8-2.8,2.8
			c-1.6,0-2.8-1.3-2.8-2.8v-9.3c-1.6-1-2.8-2.7-2.8-4.8c0-3.1,2.5-5.6,5.6-5.6c3.1,0,5.6,2.5,5.6,5.6
			C-152.6,15.9-153.8,17.7-155.4,18.6z M-147-8.6h-22.5v-16.9c0-6.2,5-11.2,11.3-11.2c6.2,0,11.2,5,11.2,11.2V-8.6z"/>
	</g>
	<path d="M8.2,88.9v-0.2h0C8.1,88.8,8.2,88.9,8.2,88.9z"/>
</g>
</svg>
