<?xml version="1.0" encoding="utf-8"?>
<!-- Generator: Adobe Illustrator 19.2.1, SVG Export Plug-In . SVG Version: 6.00 Build 0)  -->
<svg version="1.1" id="Layer_1" xmlns="http://www.w3.org/2000/svg" xmlns:xlink="http://www.w3.org/1999/xlink" x="0px" y="0px"
	 viewBox="0 0 80 75" enable-background="new 0 0 80 75" xml:space="preserve">
<g>
	<path d="M78,47h-7.4c-1.1,0-1.6,0.5-1.6,1.6V64H11V48.6c0-1.1-0.5-1.6-1.6-1.6H2c-1.1,0-2,0.5-2,1.6v13.1c0,1.1,0,2.9,0,4v7.4
		C0,74.2,0.9,75,2,75h7.4c1.1,0,2.9,0,4,0h53.1c1.1,0,2.9,0,4,0H78c1.1,0,2-0.8,2-1.9v-7.4c0-1.1,0-2.9,0-4V48.6
		C80,47.5,79.1,47,78,47z"/>
	<path d="M46,2.1C46,1,44.8,0,43.7,0h-7.4C35.2,0,34,1,34,2.1V23H17.1L40,51.6L62.9,23H46V2.1z"/>
</g>
</svg>
