<?xml version="1.0" encoding="utf-8"?>
<!-- Generator: Adobe Illustrator 19.2.1, SVG Export Plug-In . SVG Version: 6.00 Build 0)  -->
<svg version="1.1" id="Layer_1" xmlns="http://www.w3.org/2000/svg" xmlns:xlink="http://www.w3.org/1999/xlink" x="0px" y="0px"
	 viewBox="0 0 31.8 18.7" enable-background="new 0 0 31.8 18.7" xml:space="preserve">
<g>
	<g>
		<g>
			<path fill="#7F7F7F" d="M4.3,5.8c0.5,0,0.9-0.1,1.3-0.3c0.1-1.1,0.6-2.1,1.5-2.7C7.1,1.2,5.9,0,4.3,0C2.7,0,1.4,1.3,1.4,2.9
				S2.7,5.8,4.3,5.8z"/>
		</g>
		<g>
			<path fill="#7F7F7F" d="M5.8,15.1c0-0.1,0-0.2,0-0.4c-0.1,0-0.1,0-0.2,0c-0.2,0-0.4,0-0.6-0.2C3.9,14,4,12,5.1,10
				C5.5,9.2,6,8.6,6.6,8.1l0,0c-0.5-0.5-0.8-1.2-1-1.9C5.3,6.3,4.8,6.4,4.3,6.4c-0.8,0-1.5-0.3-2.1-0.7c-0.5,0.5-1,1-1.4,1.8
				c-0.9,1.8-1.1,3.5-0.3,4c0.4,0.2,0.7,0.1,1.1-0.3c-0.1,0.4-0.1,0.8-0.1,1.3c0,2,0.7,3.6,1.7,3.6c0.5,0,0.9-0.6,1-1.5
				c0.1,0.9,0.4,1.5,1,1.5c0.2,0,0.4-0.1,0.5-0.2C5.8,15.5,5.8,15.3,5.8,15.1z"/>
		</g>
	</g>
	<g>
		<g>
			<g>
				<path fill="#7F7F7F" d="M13.6,11.7c0.1-0.5,0.4-1.1,0.7-1.7c0.4-0.7,0.9-1.3,1.5-1.9l0,0c-0.5-0.5-0.8-1.2-1-1.9
					c-0.4,0.2-0.9,0.3-1.4,0.3c-0.4,0-0.8-0.1-1.2-0.2c-0.1,0.7-0.5,1.4-0.9,1.9l0,0c0.3,0.3,1,0.9,1.5,1.9
					C13.3,10.5,13.5,11.1,13.6,11.7z"/>
			</g>
			<g>
				<path fill="#7F7F7F" d="M15,15.1c0-0.1,0-0.2,0-0.4c-0.1,0-0.1,0-0.2,0c-0.2,0-0.4,0-0.6-0.2c-0.3-0.2-0.5-0.4-0.6-0.8
					c-0.2,0.4-0.4,0.6-0.7,0.8c-0.2,0.1-0.4,0.2-0.6,0.2c-0.1,0-0.1,0-0.2,0c0,0.1,0,0.2,0,0.4c0,0.3,0,0.5,0,0.8
					c0.1,0,0.2,0.1,0.3,0.1c0.5,0,0.9-0.6,1-1.5c0.1,0.9,0.4,1.5,1,1.5c0.2,0,0.4-0.1,0.5-0.2C15,15.5,15,15.3,15,15.1z"/>
			</g>
		</g>
		<g>
			<path fill="#7F7F7F" d="M14.9,5.5c0.1-1.1,0.6-2.1,1.5-2.7C16.3,1.2,15.1,0,13.5,0c-1.5,0-2.7,1.2-2.9,2.7c1,0.6,1.7,1.6,1.8,2.9
				c0.3,0.1,0.7,0.2,1.1,0.2C14,5.8,14.5,5.7,14.9,5.5z"/>
		</g>
	</g>
	<g>
		<g>
			<g>
				<path fill="#7F7F7F" d="M22.9,11.7c0.1-0.6,0.4-1.1,0.7-1.8c0.4-0.7,0.9-1.3,1.5-1.9l0,0c-0.5-0.5-0.8-1.2-1-1.9
					c-0.4,0.2-0.9,0.3-1.4,0.3c-0.4,0-0.8-0.1-1.2-0.2c-0.1,0.7-0.4,1.4-0.9,1.9l0,0c0.3,0.3,1,0.9,1.5,1.9
					C22.5,10.6,22.7,11.2,22.9,11.7z"/>
			</g>
			<g>
				<path fill="#7F7F7F" d="M24.2,15.1c0-0.1,0-0.2,0-0.4c-0.1,0-0.1,0-0.2,0c-0.2,0-0.4,0-0.6-0.2c-0.3-0.2-0.5-0.5-0.6-0.8
					c-0.2,0.4-0.4,0.7-0.7,0.8c-0.2,0.1-0.4,0.2-0.6,0.2c-0.1,0-0.1,0-0.2,0c0,0.1,0,0.2,0,0.4c0,0.3,0,0.5,0,0.8
					c0.1,0.1,0.2,0.1,0.4,0.1c0.5,0,0.9-0.6,1-1.5c0.1,0.9,0.4,1.5,1,1.5c0.2,0,0.4-0.1,0.5-0.2C24.2,15.5,24.2,15.3,24.2,15.1z"/>
			</g>
		</g>
		<g>
			<path fill="#7F7F7F" d="M24.1,5.5c0.1-1.1,0.6-2.1,1.5-2.7C25.6,1.2,24.3,0,22.8,0c-1.5,0-2.8,1.2-2.9,2.7c1,0.6,1.7,1.6,1.7,2.9
				c0.3,0.1,0.7,0.2,1.1,0.2C23.3,5.8,23.7,5.7,24.1,5.5z"/>
		</g>
	</g>
	<g>
		<path fill="#010101" d="M21.7,10.2c-0.4-0.7-0.9-1.3-1.4-1.8c-0.6,0.4-1.3,0.7-2.1,0.7s-1.5-0.3-2.1-0.7c-0.5,0.5-1,1-1.4,1.8
			c-0.9,1.8-1.1,3.5-0.3,4c0.4,0.2,0.7,0.1,1.1-0.3c-0.1,0.4-0.1,0.8-0.1,1.3c0,2,0.7,3.6,1.7,3.6c0.5,0,0.9-0.6,1-1.5
			c0.1,0.9,0.4,1.5,1,1.5c0.9,0,1.7-1.6,1.7-3.6c0-0.5-0.1-0.9-0.1-1.3c0.4,0.4,0.8,0.5,1.1,0.3C22.8,13.7,22.7,12,21.7,10.2z
			 M18.2,8.5c1.6,0,2.9-1.3,2.9-2.9s-1.3-2.9-2.9-2.9S15.3,4,15.3,5.6S16.6,8.5,18.2,8.5z"/>
	</g>
	<g>
		<path fill="#7F7F7F" d="M12.5,10.2c-0.4-0.7-0.9-1.3-1.4-1.8C10.5,8.9,9.8,9.1,9,9.1c-0.8,0-1.5-0.3-2.1-0.7c-0.5,0.5-1,1-1.4,1.8
			c-0.9,1.8-1.1,3.5-0.3,4c0.4,0.2,0.7,0.1,1.1-0.3c-0.1,0.4-0.1,0.8-0.1,1.3c0,2,0.7,3.6,1.7,3.6c0.5,0,0.9-0.6,1-1.5
			c0.1,0.9,0.4,1.5,1,1.5c0.9,0,1.7-1.6,1.7-3.6c0-0.5-0.1-0.9-0.1-1.3c0.4,0.4,0.8,0.5,1.1,0.3C13.6,13.7,13.5,12,12.5,10.2z
			 M9,8.5c1.6,0,2.9-1.3,2.9-2.9S10.6,2.7,9,2.7S6.1,4,6.1,5.6S7.4,8.5,9,8.5z"/>
	</g>
	<g>
		<path fill="#7F7F7F" d="M31,10.2c-0.4-0.7-0.9-1.3-1.4-1.8c-0.6,0.4-1.3,0.7-2.1,0.7c-0.8,0-1.5-0.3-2.1-0.7c-0.5,0.5-1,1-1.4,1.8
			c-0.9,1.8-1.1,3.5-0.3,4c0.4,0.2,0.7,0.1,1.1-0.3c-0.1,0.4-0.1,0.8-0.1,1.3c0,2,0.7,3.6,1.7,3.6c0.5,0,0.9-0.6,1-1.5
			c0.1,0.9,0.4,1.5,1,1.5c0.9,0,1.7-1.6,1.7-3.6c0-0.5-0.1-0.9-0.1-1.3c0.4,0.4,0.8,0.5,1.1,0.3C32.1,13.7,31.9,12,31,10.2z
			 M27.5,8.5c1.6,0,2.9-1.3,2.9-2.9s-1.3-2.9-2.9-2.9c-1.6,0-2.9,1.3-2.9,2.9S25.9,8.5,27.5,8.5z"/>
	</g>
</g>
</svg>
