<?xml version="1.0" encoding="utf-8"?>
<!-- Generator: Adobe Illustrator 19.2.1, SVG Export Plug-In . SVG Version: 6.00 Build 0)  -->
<svg version="1.1" id="Layer_1" xmlns="http://www.w3.org/2000/svg" xmlns:xlink="http://www.w3.org/1999/xlink" x="0px" y="0px"
	 viewBox="0 0 59.1 35.4" enable-background="new 0 0 59.1 35.4" xml:space="preserve">
<g>
	<path fill="#010101" d="M17.3,16.6c-0.9-1.6-2.1-3-3.1-3.9c-1.3,0.9-2.8,1.5-4.6,1.5s-3.3-0.6-4.6-1.5c-1.2,1-2.2,2.2-3.1,3.9
		c-2.1,3.9-2.4,7.8-0.6,8.8c0.9,0.4,1.6,0.1,2.5-0.7c-0.1,0.9-0.3,1.8-0.3,2.8c0,4.3,1.6,7.9,3.7,7.9c1.2,0,1.9-1.3,2.2-3.3
		c0.3,1.9,0.9,3.3,2.2,3.3c2.1,0,3.7-3.6,3.7-7.9c0-1-0.1-1.9-0.3-2.8c0.9,0.9,1.8,1.2,2.5,0.7C19.7,24.4,19.4,20.5,17.3,16.6z
		 M9.5,12.8c3.6,0,6.4-2.8,6.4-6.4S13.1,0,9.5,0S3.1,2.8,3.1,6.4S6,12.8,9.5,12.8z"/>
	<path fill="#7F7F7F" d="M57.4,16.6c-0.9-1.6-2.1-3-3.1-3.9c-1.3,0.9-2.8,1.5-4.6,1.5s-3.3-0.6-4.6-1.5c-1.2,1-2.2,2.2-3.1,3.9
		c-2.1,3.9-2.4,7.8-0.6,8.8c0.9,0.4,1.6,0.1,2.5-0.7c-0.1,0.9-0.3,1.8-0.3,2.8c0,4.3,1.6,7.9,3.7,7.9c1.2,0,1.9-1.3,2.2-3.3
		c0.3,1.9,0.9,3.3,2.2,3.3c2.1,0,3.7-3.6,3.7-7.9c0-1-0.1-1.9-0.3-2.8c0.9,0.9,1.8,1.2,2.5,0.7C59.8,24.4,59.5,20.5,57.4,16.6z
		 M49.6,12.8c3.6,0,6.4-2.8,6.4-6.4S53.2,0,49.6,0c-3.6,0-6.4,2.8-6.4,6.4S46.1,12.8,49.6,12.8z"/>
	<polygon points="36.1,19.3 31.1,15.3 31.1,17 23.6,17 23.6,21.7 31.1,21.7 31.1,23.4 	"/>
</g>
</svg>
