<?xml version="1.0" encoding="utf-8"?>
<!-- Generator: Adobe Illustrator 19.2.1, SVG Export Plug-In . SVG Version: 6.00 Build 0)  -->
<svg version="1.1" id="Layer_1" xmlns="http://www.w3.org/2000/svg" xmlns:xlink="http://www.w3.org/1999/xlink" x="0px" y="0px"
	 viewBox="0 0 12.8 23.7" style="enable-background:new 0 0 12.8 23.7;" xml:space="preserve">
<path d="M11.6,11.1c-0.6-1.1-1.4-2-2.1-2.6c-0.9,0.6-1.9,1-3.1,1s-2.2-0.4-3.1-1C2.5,9.2,1.8,10,1.2,11.1c-1.4,2.6-1.6,5.2-0.4,5.9
	c0.6,0.3,1.1,0.1,1.7-0.5c-0.1,0.6-0.2,1.2-0.2,1.9c0,2.9,1.1,5.3,2.5,5.3c0.8,0,1.3-0.9,1.5-2.2c0.2,1.3,0.6,2.2,1.5,2.2
	c1.4,0,2.5-2.4,2.5-5.3c0-0.7-0.1-1.3-0.2-1.9c0.6,0.6,1.2,0.8,1.7,0.5C13.2,16.3,13,13.7,11.6,11.1z M6.4,8.6
	c2.4,0,4.3-1.9,4.3-4.3S8.8,0,6.4,0S2.1,1.9,2.1,4.3S4,8.6,6.4,8.6z"/>
</svg>
