<?xml version="1.0" encoding="utf-8"?>
<!-- Generator: Adobe Illustrator 19.2.1, SVG Export Plug-In . SVG Version: 6.00 Build 0)  -->
<svg version="1.1" id="Layer_1" xmlns="http://www.w3.org/2000/svg" xmlns:xlink="http://www.w3.org/1999/xlink" x="0px" y="0px"
	 viewBox="0 0 32 16" enable-background="new 0 0 32 16" xml:space="preserve">
<path d="M29.7,2.3c-3-3.1-7.9-3.1-11,0L16,5.2l-2.7-2.8c-3-3.1-7.9-3.1-11,0s-3,8.2,0,11.3c3,3.1,7.9,3.1,11,0l2.7-2.8l2.7,2.8
	c3,3.1,7.9,3.1,11,0C32.8,10.5,32.8,5.5,29.7,2.3z M10.5,10.8c-1.5,1.6-4,1.6-5.5,0C3.5,9.3,3.5,6.7,5,5.2c1.5-1.6,4-1.6,5.5,0
	L13.3,8L10.5,10.8z M27,10.8c-1.5,1.6-4,1.6-5.5,0L18.7,8l2.7-2.8c1.5-1.6,4-1.6,5.5,0C28.5,6.7,28.5,9.3,27,10.8z"/>
</svg>
